<svg xmlns:dc="http://purl.org/dc/elements/1.1/" xmlns:cc="http://creativecommons.org/ns#" xmlns:rdf="http://www.w3.org/1999/02/22-rdf-syntax-ns#" xmlns:svg="http://www.w3.org/2000/svg" xmlns="http://www.w3.org/2000/svg" viewBox="0 0 768 768" height="768" width="768" xml:space="preserve" id="svg2" version="1.1"><metadata id="metadata8" fill="#d90000"><rdf:RDF fill="#d90000"><cc:Work rdf:about="" fill="#d90000"><dc:format fill="#d90000">image/svg+xml</dc:format><dc:type rdf:resource="http://purl.org/dc/dcmitype/StillImage" fill="#d90000"/></cc:Work></rdf:RDF></metadata><defs id="defs6" fill="#d90000"><clipPath id="clipPath82" clipPathUnits="userSpaceOnUse" fill="#d90000"><path id="path80" d="M 0,576 H 576 V 0 H 0 Z" fill="#d90000"/></clipPath></defs><g transform="matrix(1.3333333,0,0,-1.3333333,0,768)" id="g10"><g transform="translate(287.5667)" id="g12"><path id="path14" style="fill:#000000;fill-opacity:1;fill-rule:nonzero;stroke:none" d="M 0,0 -129.518,259.036 Z"/></g><g transform="translate(0,575.1333)" id="g16"><path id="path18" style="fill:#000000;fill-opacity:1;fill-rule:nonzero;stroke:none" d="M 0,0 120.398,-240.797 Z"/></g><g transform="translate(288.3016)" id="g20"><path id="path22" style="fill:#000000;fill-opacity:1;fill-rule:nonzero;stroke:none" d="M 0,0 287.646,572.951 Z"/></g><g transform="translate(229.7661,260.0361)" id="g24"><path id="path26" style="fill:#000000;fill-opacity:1;fill-rule:nonzero;stroke:none" d="M 0,0 58.167,-116.335"/></g><g transform="translate(175.0383,368.4915)" id="g28"><path id="path30" style="fill:#000000;fill-opacity:1;fill-rule:nonzero;stroke:none" d="M 0,0 -103.387,206.775 Z"/></g><g transform="translate(465.5674,497.2485)" id="g32"><path id="path34" style="fill:#000000;fill-opacity:1;fill-rule:nonzero;stroke:none" d="M 0,0 -177.634,-353.82"/></g><g transform="translate(504.2331,574.2666)" id="g36"><path id="path38" style="fill:#000000;fill-opacity:1;fill-rule:nonzero;stroke:none" d="M 0,0 71.7,1 Z"/></g><g transform="translate(202.4619,313.644)" id="g40"><path id="path42" style="fill:#000000;fill-opacity:1;fill-rule:nonzero;stroke:none" d="M 0,0 263.105,183.604"/></g><g transform="translate(386.8578,196.3089)" id="g44"><path id="path46" style="fill:#000000;fill-opacity:1;fill-rule:nonzero;stroke:none" d="M 0,0 189.076,118.188 Z"/></g><g transform="translate(72.8071)" id="g48"><path id="path50" style="fill:#000000;fill-opacity:1;fill-rule:nonzero;stroke:none" d="M 0,0 163.621,102.277 Z"/></g><g transform="translate(445.5306,314.199)" id="g52"><path id="path54" style="fill:#000000;fill-opacity:1;fill-rule:nonzero;stroke:none" d="M 0,0 130.403,0.298 Z"/></g><g transform="translate(202.4622,313.6437)" id="g56"><path id="path58" style="fill:#000000;fill-opacity:1;fill-rule:nonzero;stroke:none" d="M 0,0 170.693,0.39 Z"/></g><g transform="translate(266.9204,184.7275)" id="g60"><path id="path62" style="fill:#000000;fill-opacity:1;fill-rule:nonzero;stroke:none" d="M 0,0 64.26,44.843"/></g><g transform="translate(2.2071)" id="g64"><path id="path66" style="fill:#000000;fill-opacity:1;fill-rule:nonzero;stroke:none" d="M 0,0 211.546,147.626 Z"/></g><g transform="translate(0,259.0778)" id="g68"><path id="path70" style="fill:#000000;fill-opacity:1;fill-rule:nonzero;stroke:none" d="m 0,0 v 0 l 120.398,75.259 54.64,34.155 329.195,205.775 z"/></g><g transform="translate(0,259.0362)" id="g72"><path id="path74" style="fill:#000000;fill-opacity:1;fill-rule:nonzero;stroke:none" d="m 0,0 h 158.049 71.717 116.207 z"/></g><g id="g76"><g clip-path="url(#clipPath82)" id="g78"><g transform="translate(170.104,378.3599)" id="g84"><path id="path86" style="fill:#000000;fill-opacity:1;fill-rule:nonzero;stroke:none" d="M 0,0 C -18.304,-11.204 -36.608,-22.407 -54.912,-33.61 L -170.17,196.907 c 24.375,-0.486 48.751,-0.971 73.126,-1.457 C -64.696,130.3 -32.348,65.15 0,0"/></g><g transform="translate(170.104,378.3599)" id="g88"><path id="path90" style="fill:none;stroke:#373535;stroke-width:2;stroke-linecap:butt;stroke-linejoin:miter;stroke-miterlimit:10;stroke-dasharray:none;stroke-opacity:1" d="M 0,0 C -18.304,-11.204 -36.608,-22.407 -54.912,-33.61 L -170.17,196.907 c 24.375,-0.486 48.751,-0.971 73.126,-1.457 C -64.696,130.3 -32.348,65.15 0,0 Z"/></g><g transform="translate(575.9336,575.2666)" id="g92"><path id="path94" style="fill:#000000;fill-opacity:1;fill-rule:nonzero;stroke:none" d="M 0,0 C -23.9,-0.333 -47.8,-0.667 -71.7,-1 -239.8,-106.077 -407.9,-211.153 -576,-316.23 h 336.374 c 9.489,18.326 18.978,36.652 28.467,54.978 -54.105,-0.124 -108.209,-0.247 -162.313,-0.371 C -248.981,-174.415 -124.49,-87.208 0,0"/></g><g transform="translate(575.9336,575.2666)" id="g96"><path id="path98" style="fill:none;stroke:#373535;stroke-width:2;stroke-linecap:butt;stroke-linejoin:miter;stroke-miterlimit:10;stroke-dasharray:none;stroke-opacity:1" d="M 0,0 C -23.9,-0.333 -47.8,-0.667 -71.7,-1 -239.8,-106.077 -407.9,-211.153 -576,-316.23 h 336.374 c 9.489,18.326 18.978,36.652 28.467,54.978 -54.105,-0.124 -108.209,-0.247 -162.313,-0.371 C -248.981,-174.415 -124.49,-87.208 0,0 Z"/></g><g transform="translate(287.9336,-0.7334)" id="g100"><path id="path102" style="fill:#000000;fill-opacity:1;fill-rule:nonzero;stroke:none" d="m 0,0 -125.511,251.021 c 23.976,0.194 47.952,0.387 71.928,0.58 17.861,-35.722 35.722,-71.445 53.583,-107.166 56.788,113.023 113.577,226.047 170.365,339.071 37.24,26.122 74.481,52.245 111.72,78.368 C 188.057,374.583 94.028,187.291 0,0"/></g><g transform="translate(287.9336,-0.7334)" id="g104"><path id="path106" style="fill:none;stroke:#373535;stroke-width:2;stroke-linecap:butt;stroke-linejoin:miter;stroke-miterlimit:10;stroke-dasharray:none;stroke-opacity:1" d="m 0,0 -125.511,251.021 c 23.976,0.194 47.952,0.387 71.928,0.58 17.861,-35.722 35.722,-71.445 53.583,-107.166 56.788,113.023 113.577,226.047 170.365,339.071 37.24,26.122 74.481,52.245 111.72,78.368 C 188.057,374.583 94.028,187.291 0,0 Z"/></g><g transform="translate(400.6699,204.9424)" id="g108"><path id="path110" style="fill:#000000;fill-opacity:1;fill-rule:nonzero;stroke:none" d="m 0,0 c 18.292,36.427 36.583,72.853 54.875,109.279 40.129,0.092 80.259,0.184 120.389,0.276 C 116.843,73.037 58.422,36.519 0,0"/></g><g transform="translate(400.6699,204.9424)" id="g112"><path id="path114" style="fill:none;stroke:#373535;stroke-width:2;stroke-linecap:butt;stroke-linejoin:miter;stroke-miterlimit:10;stroke-dasharray:none;stroke-opacity:1" d="m 0,0 c 18.292,36.427 36.583,72.853 54.875,109.279 40.129,0.092 80.259,0.184 120.389,0.276 C 116.843,73.037 58.422,36.519 0,0 Z"/></g><g transform="translate(319.457,220.9395)" id="g116"><path id="path118" style="fill:#000000;fill-opacity:1;fill-rule:nonzero;stroke:none" d="m 0,0 c -15.606,-10.536 -31.213,-21.072 -46.819,-31.607 5.351,-10.27 10.702,-20.539 16.053,-30.808 4.569,9.268 9.137,18.536 13.705,27.805 C -11.373,-23.074 -5.687,-11.537 0,0"/></g><g transform="translate(319.457,220.9395)" id="g120"><path id="path122" style="fill:none;stroke:#373535;stroke-width:2;stroke-linecap:butt;stroke-linejoin:miter;stroke-miterlimit:10;stroke-dasharray:none;stroke-opacity:1" d="m 0,0 c -15.606,-10.536 -31.213,-21.072 -46.819,-31.607 5.351,-10.27 10.702,-20.539 16.053,-30.808 4.569,9.268 9.137,18.536 13.705,27.805 C -11.373,-23.074 -5.687,-11.537 0,0 Z"/></g><g transform="translate(228.0234,97.0234)" id="g124"><path id="path126" style="fill:#000000;fill-opacity:1;fill-rule:nonzero;stroke:none" d="m 0,0 c -52.13,-32.585 -104.26,-65.171 -156.39,-97.757 -23.9,-0.284 -47.8,-0.568 -71.7,-0.853 68.64,47.9 137.28,95.799 205.92,143.699 C -14.78,30.06 -7.39,15.03 0,0"/></g><g transform="translate(228.0234,97.0234)" id="g128"><path id="path130" style="fill:none;stroke:#373535;stroke-width:2;stroke-linecap:butt;stroke-linejoin:miter;stroke-miterlimit:10;stroke-dasharray:none;stroke-opacity:1" d="m 0,0 c -52.13,-32.585 -104.26,-65.171 -156.39,-97.757 -23.9,-0.284 -47.8,-0.568 -71.7,-0.853 68.64,47.9 137.28,95.799 205.92,143.699 C -14.78,30.06 -7.39,15.03 0,0 Z"/></g></g></g></g></svg>