<?xml version="1.0" encoding="UTF-8"?>
<svg version="1.1" xmlns="http://www.w3.org/2000/svg" width="512" height="512">
<path d="M0 0 C7.98850845 7.12581855 12.48967482 15.82924674 13.80859375 26.55078125 C14.32056511 38.40369398 10.80364957 47.93276391 2.93383789 56.70239258 C0.94747952 58.73267837 -1.07633432 60.71253601 -3.12890625 62.67578125 C-4.49470854 63.99739964 -5.8580047 65.32161298 -7.21875 66.6484375 C-8.11194946 67.50514038 -8.11194946 67.50514038 -9.02319336 68.37915039 C-10.82264929 70.23331335 -12.49078417 72.11868067 -14.16732788 74.08126831 C-18.80457924 79.3923551 -23.77197626 84.36550043 -28.74487305 89.35961914 C-29.79376026 90.41642578 -30.84247153 91.47340707 -31.89102173 92.5305481 C-35.30386821 95.96935311 -38.72193661 99.40294161 -42.140625 102.8359375 C-43.32151147 104.02219023 -44.50239231 105.20844858 -45.68326759 106.39471245 C-50.59075443 111.32376938 -55.49965432 116.25141175 -60.41228008 121.17534733 C-67.44097465 128.22033727 -74.4609905 135.27373256 -81.46941823 142.33888632 C-86.40863248 147.31671219 -91.35731156 152.28499973 -96.31321841 157.24620622 C-99.27055542 160.2072022 -102.22353313 163.17226409 -105.16647911 166.14756966 C-107.9275484 168.9385729 -110.70009232 171.71762807 -113.48207474 174.48778152 C-114.50231967 175.50780464 -115.51826761 176.53214592 -116.52962303 177.56098366 C-117.90665531 178.9605224 -119.30056543 180.34339581 -120.69535828 181.72523499 C-121.47163417 182.50482102 -122.24791006 183.28440706 -123.04770947 184.08761692 C-125.19140625 185.61328125 -125.19140625 185.61328125 -127.37590885 185.43023682 C-129.4218494 184.50958415 -130.64144696 183.52528544 -132.21582031 181.92944336 C-132.77609924 181.36893784 -133.33637817 180.80843231 -133.91363525 180.23094177 C-134.50545593 179.62363724 -135.09727661 179.0163327 -135.70703125 178.390625 C-136.32286072 177.77055069 -136.93869019 177.15047638 -137.57318115 176.51161194 C-139.5364126 174.5316022 -141.48895061 172.54141206 -143.44140625 170.55078125 C-144.77144373 169.2056959 -146.10216504 167.86128637 -147.43359375 166.51757812 C-150.69418162 163.22393219 -153.94521813 159.92111786 -157.19140625 156.61328125 C-153.02413948 148.56614542 -147.92053772 141.29418479 -142.75524902 133.87182617 C-140.07271766 129.99764029 -137.43263726 126.09487186 -134.79296875 122.19140625 C-134.23754395 121.37020294 -133.68211914 120.54899963 -133.10986328 119.70291138 C-131.34423025 117.09047408 -129.58007842 114.47704269 -127.81640625 111.86328125 C-126.88532043 110.48399445 -126.88532043 110.48399445 -125.9354248 109.07684326 C-116.34282791 94.85890749 -106.86002607 80.57193017 -97.44140625 66.23828125 C-88.67579119 52.90684977 -79.89686384 39.58486955 -70.99963379 26.34075928 C-69.9368116 24.75709258 -68.87626399 23.17189649 -67.8182373 21.58502197 C-50.68662282 -4.09301853 -50.68662282 -4.09301853 -33.75390625 -8.82421875 C-21.48459589 -10.98023887 -9.59713046 -7.78197903 0 0 Z " fill="#000000" transform="translate(349.19140625,92.38671875)"/>
<path d="M0 0 C8.39898638 6.28205692 14.43847776 15.38154939 16.38671875 25.78515625 C17.2622478 37.05221041 15.95348666 46.20226382 9.26171875 55.47265625 C0.4392994 65.72590028 -11.63112669 72.55773577 -22.85253906 79.86474609 C-27.8469852 83.11800158 -32.83025776 86.38825128 -37.8125 89.66015625 C-38.77972992 90.29518066 -39.74695984 90.93020508 -40.74349976 91.58447266 C-47.27628795 95.88242482 -53.73492386 100.26047506 -60.11328125 104.78515625 C-73.69708569 114.3965024 -87.67711077 123.42143428 -101.58276367 132.55677795 C-102.5235376 133.1748381 -103.46431152 133.79289825 -104.43359375 134.4296875 C-105.37307861 135.04682114 -106.31256348 135.66395477 -107.28051758 136.29978943 C-116.50059515 142.36041108 -125.68725143 148.4706082 -134.86328125 154.59765625 C-135.57667664 155.07390442 -136.29007202 155.55015259 -137.02508545 156.04083252 C-140.88893382 158.62060615 -144.75169282 161.20200111 -148.61328125 163.78515625 C-155.3540855 158.25865291 -161.42039415 152.09066066 -167.55078125 145.91015625 C-168.62671852 144.82919351 -169.70288856 143.74846242 -170.77929688 142.66796875 C-173.39331417 140.04302984 -176.00416721 137.41496997 -178.61328125 134.78515625 C-177.03323718 130.93131078 -174.43144169 128.30949067 -171.53167725 125.41593933 C-171.00898451 124.88659879 -170.48629178 124.35725824 -169.94775987 123.81187707 C-168.19487471 122.03930705 -166.43490355 120.27395008 -164.67480469 118.50854492 C-163.41607319 117.23891713 -162.15773108 115.96890319 -160.89974976 114.6985321 C-157.47864302 111.24690928 -154.05080115 107.80205511 -150.62075329 104.35931945 C-148.4747103 102.20518679 -146.32971782 100.05001318 -144.18500519 97.89455605 C-137.4654924 91.14231111 -130.74157032 84.39449879 -124.01177001 77.65250701 C-116.26066239 69.88717298 -108.52455834 62.10729245 -100.80116248 54.31439799 C-94.82100678 48.28230802 -88.82732342 42.26387495 -82.82346368 36.25537854 C-79.24297189 32.67150125 -75.66834827 29.08221763 -72.10784149 25.47847557 C-68.75140999 22.08200781 -65.37834738 18.70294963 -61.99238968 15.33592415 C-60.76013218 14.1049228 -59.5337167 12.86803756 -58.31404495 11.62456512 C-41.6968431 -5.29791677 -21.79624314 -13.92632803 0 0 Z " fill="#000000" transform="translate(412.61328125,156.21484375)"/>
<path d="M0 0 C8.83148297 6.16149975 15.76245724 14.04730385 17.890625 24.78125 C19.14587497 37.73909079 17.18603369 48.10852521 9.16015625 58.61328125 C2.45589383 65.01752504 -5.64231817 68.58621667 -14.109375 72.09375 C-15.31303711 72.60099609 -16.51669922 73.10824219 -17.75683594 73.63085938 C-21.13905901 75.05460532 -24.52675201 76.46485115 -27.91625977 77.87115479 C-30.16030669 78.80238555 -32.40348372 79.73568577 -34.64648438 80.66943359 C-43.065901 84.17311962 -51.49059345 87.66394334 -59.91796875 91.1484375 C-70.73838206 95.62294996 -81.54803029 100.1230995 -92.35546875 104.62884521 C-95.40158176 105.89779623 -98.44870195 107.16429925 -101.49609375 108.43017578 C-110.13793325 112.02247432 -118.7744328 115.62368044 -127.37272644 119.31924438 C-130.74543197 120.76837533 -134.12249527 122.20718501 -137.49984741 123.64544678 C-139.05913393 124.31343296 -140.61602293 124.98704678 -142.1703186 125.66656494 C-144.28501172 126.59099596 -146.40684371 127.49660517 -148.53125 128.3984375 C-149.71299805 128.91003418 -150.89474609 129.42163086 -152.11230469 129.94873047 C-155.109375 130.78125 -155.109375 130.78125 -157.10766602 130.00811768 C-159.06415172 128.80896781 -160.52254432 127.60977914 -162.13378906 125.98388672 C-162.69406799 125.42345673 -163.25434692 124.86302673 -163.831604 124.28561401 C-164.42342468 123.68347076 -165.01524536 123.08132751 -165.625 122.4609375 C-166.24082947 121.84227814 -166.85665894 121.22361877 -167.4911499 120.58621216 C-169.45197836 118.61421186 -171.40572801 116.63536263 -173.359375 114.65625 C-174.68964299 113.31594836 -176.020367 111.97609917 -177.3515625 110.63671875 C-180.6094765 107.35678411 -183.86106033 104.07069058 -187.109375 100.78125 C-184.38087281 97.90471081 -181.63666729 95.64490532 -178.32421875 93.47265625 C-176.85094116 92.49945435 -176.85094116 92.49945435 -175.34790039 91.5065918 C-174.25856201 90.792854 -173.16922363 90.07911621 -172.046875 89.34375 C-169.5840861 87.71894038 -167.12399905 86.09006141 -164.6640625 84.4609375 C-163.66129021 83.79758644 -163.66129021 83.79758644 -162.63825989 83.12083435 C-157.17248692 79.49981983 -151.73465907 75.83850041 -146.3046875 72.1640625 C-145.44875 71.58488068 -144.5928125 71.00569885 -143.7109375 70.40896606 C-141.93702569 69.20845419 -140.16314103 68.00790221 -138.38928223 66.80731201 C-120.5963051 54.76881756 -102.71551915 42.87083994 -84.75683594 31.08105469 C-76.4762168 25.64364867 -68.20564231 20.19475679 -59.9921875 14.65625 C-58.94322044 13.95031456 -58.94322044 13.95031456 -57.87306213 13.2301178 C-54.68514843 11.08430415 -51.50168529 8.93252989 -48.3269043 6.76733398 C-33.76218151 -3.09420936 -16.75800438 -9.68240253 0 0 Z " fill="#000000" transform="translate(462.109375,231.21875)"/>
<path d="M0 0 C8.44784076 5.87988917 13.40903176 13.16312076 16.6328125 22.9140625 C17.17122871 25.97272482 17.25150366 28.95810711 17.3125 32.0625 C17.36857422 33.90521484 17.36857422 33.90521484 17.42578125 35.78515625 C16.63623487 48.17051697 8.77350114 57.84811863 1.96484375 67.68774414 C-1.33781437 72.46159405 -4.6008596 77.26250348 -7.87109375 82.05859375 C-8.54768036 83.04838226 -9.22426697 84.03817078 -9.9213562 85.05795288 C-16.90650885 95.28990584 -23.70899767 105.63864685 -30.5 116 C-41.57611339 132.87573615 -52.79587013 149.64974595 -64.109375 166.3671875 C-64.95820755 167.62193878 -64.95820755 167.62193878 -65.82418823 168.90203857 C-66.93044153 170.535863 -68.03809321 172.1687416 -69.14724731 173.80059814 C-71.94145418 177.9189464 -74.69638275 182.05749333 -77.39794922 186.23730469 C-77.94515121 187.0779245 -78.49235321 187.91854431 -79.05613708 188.78463745 C-80.09758862 190.38807599 -81.13061881 191.9970251 -82.15394592 193.61209106 C-82.61611008 194.32130707 -83.07827423 195.03052307 -83.55444336 195.76123047 C-83.95594101 196.3888327 -84.35743866 197.01643494 -84.77110291 197.66305542 C-85.17663895 198.10424713 -85.58217499 198.54543884 -86 199 C-89 199 -89 199 -90.4617157 197.89904785 C-90.97023575 197.38386597 -91.4787558 196.86868408 -92.00268555 196.33789062 C-92.87324837 195.46698792 -92.87324837 195.46698792 -93.76139832 194.57849121 C-94.38025406 193.94415161 -94.9991098 193.30981201 -95.63671875 192.65625 C-96.27615921 192.0125647 -96.91559967 191.36887939 -97.57441711 190.70568848 C-99.61924143 188.64404404 -101.65340245 186.57222339 -103.6875 184.5 C-105.07027471 183.10218283 -106.45372991 181.70503847 -107.83789062 180.30859375 C-111.23321183 176.88015899 -114.61900414 173.44256036 -118 170 C-116.04462743 163.86079031 -113.81122334 157.91095759 -111.296875 151.98046875 C-110.94255905 151.13711472 -110.5882431 150.29376068 -110.22319031 149.42485046 C-109.46355339 147.61780553 -108.70242037 145.8113889 -107.93991089 144.0055542 C-106.72658952 141.13205719 -105.51719066 138.2569373 -104.30883789 135.38134766 C-102.65832258 131.45380212 -101.00657845 127.52677714 -99.35400391 123.60009766 C-96.03071483 115.69913997 -92.7321108 107.78794915 -89.4375 99.875 C-88.83333776 98.42488422 -88.22917108 96.9747703 -87.625 95.5246582 C-83.92892561 86.65023923 -80.24580354 77.77049447 -76.56866455 68.88821411 C-73.6944044 61.94571312 -70.81432604 55.00564238 -67.93109131 48.06686401 C-66.10164953 43.66201543 -64.28044068 39.2539618 -62.47042847 34.84109497 C-61.25821518 31.89112429 -60.03435416 28.94598781 -58.8125 26 C-58.40354492 24.99308105 -57.99458984 23.98616211 -57.57324219 22.94873047 C-52.54966939 10.91421453 -46.22669177 1.83984061 -33.9375 -3.4375 C-22.51443376 -7.11719921 -10.31000047 -6.23872188 0 0 Z " fill="#000000" transform="translate(268,37)"/>
<path d="M0 0 C3.40890785 1.47369277 5.62521822 3.37807411 8.23944092 5.99893188 C9.07794083 6.83468246 9.91644073 7.67043304 10.78034973 8.5315094 C11.69169174 9.45004196 12.60303375 10.36857452 13.54199219 11.31494141 C14.51750956 12.29102309 15.49346788 13.26666426 16.46983337 14.24189758 C19.11657103 16.8880615 21.75709755 19.54034587 24.3965559 22.19376802 C27.15697073 24.96668658 29.92305155 27.73394125 32.6885376 30.50180054 C37.92336137 35.74284012 43.15306606 40.98895703 48.38095307 46.23691499 C54.33345265 52.2117704 60.29163323 58.18094679 66.25029898 64.14965177 C78.50653378 76.42679086 90.75561142 88.71104648 103 101 C100.52582247 106.24654892 96.55378553 109.818225 92.48120117 113.8894043 C91.08779162 115.28713004 89.7107039 116.7010665 88.33398438 118.11523438 C74.7956673 131.71153139 60.12000797 138.47324204 41 139 C19.57526776 138.17759394 5.31967461 127.88115745 -9.18139648 113.2097168 C-10.81756642 111.55738353 -12.46928484 109.92181492 -14.12304688 108.28710938 C-21.68319155 100.74423845 -28.10155567 93.42717175 -31.8125 83.25 C-32.21082031 82.18265625 -32.60914063 81.1153125 -33.01953125 80.015625 C-38.24843335 63.93310539 -35.71027408 46.14926138 -28.3125 31.3125 C-24.93111372 25.50152507 -20.70669686 20.7602666 -16 16 C-15.3498291 15.3414502 -14.6996582 14.68290039 -14.02978516 14.00439453 C-9.38030112 9.30880337 -4.70062233 4.64436373 0 0 Z " fill="#000000" transform="translate(67,342)"/>
<path d="M0 0 C5.8587357 4.86278917 11.23644152 10.10078525 16.60717773 15.49365234 C17.55379596 16.44055319 18.50063551 17.38723281 19.44767761 18.33370972 C21.99901164 20.88475868 24.5472664 23.43886305 27.09495044 25.9935565 C29.76503319 28.66992131 32.43797774 31.34342496 35.11061096 34.01724243 C40.16270611 39.07243665 45.21224829 44.13017292 50.26086241 49.18884337 C56.01225297 54.95143942 61.76650792 60.71117162 67.52099693 66.47067332 C79.35050567 78.3106142 91.17643916 90.15411938 103 102 C102.05340292 103.11268262 101.10560819 104.22434643 100.15731812 105.33558655 C99.36580888 106.26433893 99.36580888 106.26433893 98.55830956 107.21185398 C96.48124255 109.59526944 94.28145049 111.83076672 92.0390625 114.05859375 C91.15605469 114.93837891 90.27304688 115.81816406 89.36328125 116.72460938 C88.00783203 118.06749023 88.00783203 118.06749023 86.625 119.4375 C85.69816406 120.35982422 84.77132812 121.28214844 83.81640625 122.23242188 C81.54654154 124.49058625 79.27436462 126.74636942 77 129 C71.1920345 124.16782007 65.82259689 118.98909297 60.46875 113.66162109 C59.07492348 112.28006081 59.07492348 112.28006081 57.65293884 110.87059021 C54.59828069 107.84189887 51.54884611 104.80797784 48.5 101.7734375 C47.44654905 100.72535263 46.39309239 99.67727348 45.33963013 98.62919998 C40.9622016 94.27334356 36.58618886 89.91607303 32.21388245 85.55507469 C25.95804908 79.31553423 19.69383063 73.08468687 13.41783333 66.86542642 C8.99628357 62.4824937 4.58428186 58.09009572 0.1793499 53.69046271 C-2.44967398 51.06509733 -5.08274273 48.44410733 -7.72607422 45.83314133 C-10.66581397 42.92889681 -13.58558777 40.00535854 -16.50390625 37.07958984 C-17.38482437 36.21507706 -18.26574249 35.35056427 -19.1733551 34.45985413 C-19.96120895 33.66368179 -20.74906281 32.86750946 -21.56079102 32.04721069 C-22.59938011 31.01358682 -22.59938011 31.01358682 -23.65895081 29.95908165 C-25 28 -25 28 -24.85974121 25.91312599 C-23.46967846 22.81991009 -21.05102906 20.68660932 -18.65234375 18.359375 C-17.85540855 17.56880707 -17.85540855 17.56880707 -17.04237366 16.76226807 C-15.34767175 15.08432813 -13.64282783 13.41713272 -11.9375 11.75 C-10.78512255 10.61267255 -9.63342148 9.47465934 -8.48242188 8.3359375 C-5.66272816 5.54928008 -2.83389412 2.77221208 0 0 Z " fill="#000000" transform="translate(105,304)"/>
<path d="M0 0 C3.18832324 1.6001944 5.46715013 4.07357126 7.92382812 6.60253906 C8.47306946 7.15602524 9.02231079 7.70951141 9.5881958 8.2797699 C11.33745777 10.0457984 13.07598956 11.82197974 14.81445312 13.59863281 C15.99995813 14.79918723 17.18614836 15.99906541 18.37304688 17.19824219 C21.27818605 20.13642376 24.17374649 23.08375356 27.06445312 26.03613281 C26.56945312 27.52113281 26.56945312 27.52113281 26.06445312 29.03613281 C23.33416913 30.39679456 20.66866855 31.57091238 17.84179688 32.69628906 C16.99711853 33.04285049 16.15244019 33.38941193 15.28216553 33.74647522 C12.52628452 34.8744638 9.76440286 35.98683933 7.00195312 37.09863281 C5.12045297 37.86377146 3.23934933 38.62988588 1.35864258 39.39697266 C-1.44908717 40.54187128 -4.25715985 41.68583581 -7.0670929 42.82531738 C-12.35340557 44.97083058 -17.61861438 47.1560808 -22.85742188 49.41503906 C-23.96206787 49.88868896 -25.06671387 50.36233887 -26.20483398 50.8503418 C-28.18311169 51.7024375 -30.15810329 52.56221776 -32.12915039 53.4309082 C-33.41970337 53.98186157 -33.41970337 53.98186157 -34.73632812 54.54394531 C-35.45989502 54.85992676 -36.18346191 55.1759082 -36.92895508 55.50146484 C-39.3995052 56.15975719 -40.5715867 55.99497877 -42.93554688 55.03613281 C-44.76660156 53.59326172 -44.76660156 53.59326172 -46.60742188 51.76269531 C-47.27128906 51.10269531 -47.93515625 50.44269531 -48.61914062 49.76269531 C-49.30105469 49.06917969 -49.98296875 48.37566406 -50.68554688 47.66113281 C-51.38292969 46.97535156 -52.0803125 46.28957031 -52.79882812 45.58300781 C-53.45753906 44.92042969 -54.11625 44.25785156 -54.79492188 43.57519531 C-55.39788086 42.96885254 -56.00083984 42.36250977 -56.62207031 41.73779297 C-57.93554688 40.03613281 -57.93554688 40.03613281 -57.93554688 37.03613281 C-56.34588623 35.62825012 -56.34588623 35.62825012 -54.08691406 34.16040039 C-53.24473328 33.60584671 -52.40255249 33.05129303 -51.53485107 32.47993469 C-50.61004944 31.88617538 -49.6852478 31.29241608 -48.73242188 30.68066406 C-47.78425598 30.06019699 -46.83609009 29.43972992 -45.85919189 28.80046082 C-42.80762031 26.8066396 -39.74687085 24.82743995 -36.68554688 22.84863281 C-34.66668519 21.53384833 -32.64844815 20.21810417 -30.63085938 18.90136719 C-27.70163172 16.98975223 -24.77100596 15.08061616 -21.8338623 13.18118286 C-17.84506405 10.60069466 -13.86779658 8.01753665 -9.9765625 5.29150391 C-8.91630859 4.55109863 -7.85605469 3.81069336 -6.76367188 3.04785156 C-5.90161133 2.42740967 -5.03955078 1.80696777 -4.15136719 1.16772461 C-1.93554688 0.03613281 -1.93554688 0.03613281 0 0 Z " fill="#000000" transform="translate(261.935546875,340.9638671875)"/>
<path d="M0 0 C3.94514804 1.60814982 6.68657093 4.33038877 9.67578125 7.26953125 C10.20519821 7.78754807 10.73461517 8.30556488 11.28007507 8.83927917 C12.39303497 9.93340131 13.50315642 11.03041736 14.6105957 12.13012695 C16.31053909 13.81056159 18.03060205 15.46849143 19.75195312 17.12695312 C20.83203977 18.19398749 21.91086094 19.26230466 22.98828125 20.33203125 C23.50586502 20.82492142 24.02344879 21.31781158 24.55671692 21.82563782 C25.97387695 23.26098633 25.97387695 23.26098633 28 26 C27.67540148 29.76637254 26.4459626 32.25249785 24.33544922 35.34033203 C23.77751678 36.1653421 23.21958435 36.99035217 22.64474487 37.84036255 C22.03752594 38.72062103 21.43030701 39.60087952 20.8046875 40.5078125 C20.17901886 41.42907928 19.55335022 42.35034607 18.90872192 43.29953003 C16.90510906 46.24663505 14.89049774 49.18601333 12.875 52.125 C10.88319779 55.04405382 8.89372322 57.96467466 6.9055481 60.88619995 C5.66928293 62.70123053 4.43058002 64.51460418 3.18893433 66.32595825 C-1.0089976 72.46751968 -5.03972984 78.70273701 -9 85 C-14.3165031 83.83827001 -17.03464771 80.51721046 -20.8125 76.75 C-21.87114258 75.74646484 -21.87114258 75.74646484 -22.95117188 74.72265625 C-23.61310547 74.06652344 -24.27503906 73.41039062 -24.95703125 72.734375 C-25.56522705 72.13850586 -26.17342285 71.54263672 -26.80004883 70.92871094 C-28 69 -28 69 -27.90893555 66.80932617 C-26.64003453 62.88742341 -25.10217909 59.11280252 -23.5 55.31640625 C-23.14796509 54.47178329 -22.79593018 53.62716034 -22.43322754 52.75694275 C-21.29303497 50.02367841 -20.14658828 47.29308673 -19 44.5625 C-17.83189684 41.76773574 -16.66524897 38.97236687 -15.49865723 36.17697144 C-14.73089878 34.3376499 -13.96259131 32.49855744 -13.19372559 30.65969849 C-9.88327667 22.73849919 -6.63055959 14.7949248 -3.42578125 6.83032227 C-1.10598275 1.10598275 -1.10598275 1.10598275 0 0 Z " fill="#000000" transform="translate(143,223)"/>
<path d="M0 0 C4.25889835 3.57746882 8.3533068 7.23127765 12.27734375 11.1796875 C13.66469727 12.571875 13.66469727 12.571875 15.08007812 13.9921875 C16.03260849 14.95306909 16.98508178 15.91400726 17.9375 16.875 C18.91708237 17.85960919 19.89689837 18.843986 20.87695312 19.828125 C23.25360252 22.21648203 25.62787356 24.60715212 28 27 C23.65364379 31.80336443 18.61610618 35.1071447 13.203125 38.62109375 C11.78081573 39.55466454 11.78081573 39.55466454 10.32977295 40.50709534 C7.30683136 42.48953617 4.2785724 44.46367469 1.25 46.4375 C-0.77119829 47.76051032 -2.79203543 49.08407256 -4.8125 50.40820312 C-8.54559338 52.85430886 -12.28113127 55.29660087 -16.01855469 57.73608398 C-20.69854447 60.79501084 -25.35420801 63.88942796 -30 67 C-36.41069287 61.72898586 -42.18590512 55.90871848 -48 50 C-46.47102424 46.38307227 -44.32184367 44.0796478 -41.55029297 41.32324219 C-40.16908768 39.94226349 -40.16908768 39.94226349 -38.75997925 38.53338623 C-37.75415535 37.5377747 -36.7482222 36.54227352 -35.7421875 35.546875 C-34.71327851 34.52169807 -33.68481163 33.49607725 -32.6567688 32.47003174 C-29.95518419 29.77606836 -27.24764659 27.08816632 -24.53881836 24.40148926 C-21.77355511 21.65671696 -19.01397367 18.90624528 -16.25390625 16.15625 C-10.84147726 10.76524427 -5.42274562 5.38063036 0 0 Z " fill="#000000" transform="translate(222,301)"/>
<path d="M0 0 C6.36590304 5.24458586 12.13570612 11.02097322 17.9375 16.875 C18.91708237 17.85960919 19.89689837 18.843986 20.87695312 19.828125 C23.25360252 22.21648203 25.62787356 24.60715212 28 27 C23.06002739 32.96118297 17.71470138 38.41486302 12.2265625 43.87109375 C11.3028183 44.793423 10.3790741 45.71575226 9.42733765 46.66603088 C6.99324569 49.09633814 4.55616403 51.52362496 2.1184082 53.95025635 C-0.3773311 56.43569364 -2.87017708 58.92402932 -5.36328125 61.41210938 C-10.2393886 66.27755096 -15.11866631 71.13980198 -20 76 C-23.11966041 74.51136264 -25.24012613 72.99711308 -27.671875 70.5234375 C-28.33574219 69.853125 -28.99960938 69.1828125 -29.68359375 68.4921875 C-30.70646484 67.44417969 -30.70646484 67.44417969 -31.75 66.375 C-32.44738281 65.66859375 -33.14476562 64.9621875 -33.86328125 64.234375 C-35.5801293 62.49400848 -37.29123998 60.74829728 -39 59 C-35.48030726 52.38502159 -31.55423185 46.1551408 -27.34375 39.9609375 C-26.7189978 39.03584381 -26.09424561 38.11075012 -25.45056152 37.15762329 C-23.47048656 34.2277344 -21.48522175 31.30140325 -19.5 28.375 C-18.16765015 26.40386115 -16.83561604 24.43250884 -15.50390625 22.4609375 C-14.22164145 20.56490985 -12.93909876 18.66907009 -11.65625 16.7734375 C-11.0634021 15.89722748 -10.4705542 15.02101746 -9.85974121 14.11825562 C-6.63481361 9.365558 -3.36003215 4.65822639 0 0 Z " fill="#000000" transform="translate(183,262)"/>
</svg>
